<svg width="72" height="72" viewBox="0 0 72 72" fill="none" xmlns="http://www.w3.org/2000/svg">
<g clip-path="url(#clip0_1_356)">
<path d="M36.0004 9.60706C20.7818 9.60706 8.40007 21.9888 8.40007 37.2074C8.40007 52.426 20.7818 64.8076 36.0004 64.8076C51.219 64.8076 63.6007 52.4258 63.6007 37.2072C63.6007 21.9886 51.219 9.60706 36.0004 9.60706ZM36.0004 62.4075C22.1055 62.4075 10.8001 51.1034 10.8001 37.2072C10.8001 23.3111 22.1055 12.007 36.0004 12.007C49.8965 12.007 61.2006 23.3111 61.2006 37.2072C61.2006 51.1034 49.8965 62.4075 36.0004 62.4075Z" fill="white"/>
<path d="M47.583 12.1572C47.4726 12.1068 47.3562 12.0719 47.2362 12.0563L46.9591 12.0191C46.5318 11.9579 46.1083 12.1366 45.8478 12.4786C45.5863 12.8206 45.5275 13.2743 45.693 13.6714C46.5173 15.6419 47.4991 19.6247 46.2438 20.5391L43.4622 21.6514C41.3562 22.4938 39.8802 24.4282 39.6102 26.7071L39.5922 26.845C39.5262 27.3226 39.1361 27.4522 38.9718 27.4859C38.6742 27.5459 38.2769 27.4739 38.049 27.0922L36.8573 25.1062C36.4192 24.3753 35.6105 23.9409 34.7705 23.9926C33.9245 24.0357 33.177 24.5386 32.817 25.3066C31.7454 27.595 30.4002 30.8974 30.0738 33.6322C29.9729 34.4806 30.1241 35.3374 30.5105 36.1115L31.8942 38.8787C32.385 39.8579 33.1374 40.6883 34.0722 41.2788C34.9338 41.8224 36.531 42.9192 37.5486 44.148C38.7067 45.5483 40.2666 46.4533 41.9419 46.7233C41.8747 48.9709 42.0224 52.6657 43.5524 54.2977C44.0876 54.8676 44.7584 55.1809 45.5012 55.2061C45.6356 55.2241 45.872 55.2482 46.178 55.2482C47.0685 55.2482 48.5553 55.0465 49.9149 53.9233C51.8086 52.3586 52.7793 49.6057 52.801 45.7404L54.5194 38.0051L55.1722 39.0923C55.7026 39.9767 56.5894 40.5983 57.6022 40.7975C58.615 40.9968 59.671 40.7544 60.4979 40.1352L63.1211 38.1671C63.4234 37.9403 63.6011 37.5851 63.6011 37.2071C63.6008 26.4949 57.3127 16.662 47.583 12.1572ZM59.0574 38.2154C58.7694 38.4301 58.4155 38.5105 58.0638 38.4422C57.7109 38.3739 57.4145 38.165 57.2297 37.8566L55.9853 35.7818C55.5749 35.0966 54.8021 34.7365 54.0101 34.8651C53.2217 34.9935 52.6 35.5803 52.426 36.3604L50.4293 45.3472C50.41 45.4324 50.4005 45.5201 50.4005 45.6077C50.4005 48.7241 49.7141 50.9513 48.4157 52.0493C47.2289 53.0526 45.8716 52.8353 45.8284 52.8294C45.6736 52.8006 45.556 52.9254 45.304 52.6566C44.5564 51.8585 44.1784 49.0733 44.3849 45.8813C44.4089 45.5021 44.2732 45.1241 44.0129 44.8469C43.7514 44.5673 43.3793 44.4077 42.9954 44.4077C41.6501 44.4077 40.3385 43.756 39.3966 42.6196C38.229 41.2072 36.5526 40.0072 35.3526 39.25C34.7885 38.8936 34.335 38.3944 34.041 37.8063L32.6573 35.039C32.481 34.6862 32.4114 34.2974 32.457 33.9159C32.751 31.4607 34.0782 28.2974 34.9037 26.513L35.9922 28.3262C36.7122 29.5262 38.0694 30.1154 39.4542 29.8359C40.7971 29.5611 41.7858 28.5158 41.9706 27.1706L41.9958 26.981C42.1602 25.583 43.0638 24.395 44.3538 23.8789L47.2471 22.7221C47.3071 22.6981 47.367 22.6681 47.4234 22.6345C49.7034 21.2498 49.4082 17.9352 48.8094 15.5088C56.2411 19.9093 60.986 27.9086 61.1935 36.6135L59.0574 38.2154Z" fill="white"/>
<path d="M30.3424 53.8527L29.6153 53.1266C28.7332 52.2434 27.7036 51.5474 26.5565 51.0553L22.8556 49.4689C21.364 48.8294 20.4004 47.3677 20.4004 45.7442V43.9381C20.4004 42.8329 19.858 41.7985 18.9496 41.1685C18.0411 40.5397 16.8808 40.3968 15.8464 40.7833L10.0839 42.9433C9.50554 43.1606 9.1852 43.7809 9.34593 44.3785C12.0471 54.4382 20.3885 62.2491 30.597 64.2759C30.6761 64.2915 30.7553 64.2987 30.8322 64.2987C31.359 64.2987 31.8366 63.9519 31.9866 63.4286L32.4258 61.8902C33.2417 59.0332 32.4437 55.9528 30.3424 53.8527ZM30.1181 61.2304L29.9885 61.6816C21.5128 59.5997 14.6044 53.1279 11.9703 44.7999L16.6887 43.0311C16.9924 42.9159 17.3175 42.9567 17.5827 43.1414C17.8479 43.3251 18.0004 43.6155 18.0004 43.9382V45.7443C18.0004 48.3292 19.5352 50.6571 21.9101 51.6748L25.6109 53.2612C26.4773 53.6332 27.2537 54.1588 27.9186 54.8236L28.6458 55.5496C30.1301 57.0339 30.6953 59.2107 30.1181 61.2304Z" fill="white"/>
<path d="M23.4207 13.77C23.0451 13.3068 22.3862 13.1903 21.8738 13.4963C13.9489 18.228 8.9269 26.5393 8.4409 35.7278C8.41924 36.1346 8.60529 36.5246 8.93534 36.7634C9.1429 36.9145 9.389 36.9913 9.63861 36.9913C9.78627 36.9913 9.93379 36.9638 10.073 36.9109L17.5166 33.9732C19.2999 33.2592 20.2203 31.2744 19.6131 29.4528C19.4654 29.0075 19.5795 28.5252 19.9107 28.1928L23.3691 24.7343C24.5499 23.5548 25.2003 21.9851 25.2003 20.3147V18.7535C25.2003 16.9536 24.5679 15.1836 23.4207 13.77ZM22.8003 20.3136C22.8003 21.3433 22.3995 22.3092 21.671 23.0364L18.2126 26.4948C17.2345 27.474 16.8986 28.8973 17.3366 30.21C17.5431 30.8281 17.2299 31.5013 16.6262 31.7425L11.0077 33.9697C11.9401 26.7108 15.989 20.2152 22.1414 16.1603C22.571 16.9584 22.8003 17.8511 22.8003 18.7524V20.3136Z" fill="white"/>
<path d="M36.0004 0.00708008C34.7597 0.00708008 33.508 0.0706426 32.2805 0.196643C31.6217 0.263861 31.1417 0.854205 31.2089 1.51303C31.2725 2.13108 31.7945 2.59064 32.4017 2.59064C32.4425 2.59064 32.4845 2.58825 32.5253 2.58347C33.6713 2.46703 34.8401 2.40713 36.0006 2.40713C36.6629 2.40713 37.2005 1.86952 37.2005 1.20717C37.2005 0.54483 36.6628 0.00708008 36.0004 0.00708008Z" fill="white"/>
<path d="M2.87297 41.6542C2.55979 39.8013 2.40018 37.9018 2.40018 36.007C2.40018 35.6062 2.40736 35.2066 2.42184 34.807C2.44462 34.1447 1.92628 33.5902 1.26379 33.5663C0.607356 33.5316 0.0469655 34.0619 0.0230592 34.7244C0.0073092 35.1502 0.000137329 35.5774 0.000137329 36.007C0.000137329 38.035 0.170575 40.0702 0.505403 42.055C0.604965 42.6406 1.11262 43.0546 1.68736 43.0546C1.75457 43.0546 1.82179 43.0498 1.89014 43.0378C2.54292 42.9274 2.98336 42.3081 2.87297 41.6542Z" fill="white"/>
<path d="M7.8507 54.3601C6.59773 52.4424 5.53939 50.3916 4.70534 48.264C4.46291 47.6472 3.76695 47.3423 3.15017 47.5848C2.53339 47.8259 2.22851 48.522 2.47095 49.1399C3.36491 51.4199 4.49891 53.6172 5.84061 55.6715C6.07095 56.0244 6.455 56.2152 6.84622 56.2152C7.07178 56.2152 7.29987 56.1516 7.50266 56.0209C8.057 55.6585 8.21309 54.9144 7.8507 54.3601Z" fill="white"/>
<path d="M5.0929 19.9536C4.49524 19.6692 3.7789 19.9224 3.49329 20.52C2.43607 22.734 1.60568 25.0645 1.0249 27.4452C0.867822 28.0896 1.26143 28.7388 1.90578 28.8959C2.00182 28.9187 2.09773 28.9295 2.19139 28.9295C2.73138 28.9295 3.22217 28.5611 3.3566 28.0139C3.89899 25.7928 4.67299 23.6183 5.65934 21.5532C5.94495 20.9544 5.69168 20.2392 5.0929 19.9536Z" fill="white"/>
<path d="M14.0306 8.99136C13.595 8.49214 12.8378 8.43941 12.3373 8.87619C10.4905 10.489 8.80217 12.2962 7.32013 14.2462C6.91935 14.773 7.0213 15.5266 7.54934 15.9274C7.76647 16.0931 8.021 16.1722 8.27413 16.1722C8.63652 16.1722 8.99413 16.0078 9.23052 15.6982C10.6141 13.8767 12.191 12.1895 13.9154 10.6846C14.4147 10.249 14.4663 9.49058 14.0306 8.99136Z" fill="white"/>
<path d="M30.1455 69.1011C27.8908 68.7039 25.6707 68.0739 23.5491 67.2267C22.9323 66.9808 22.2351 67.2795 21.9891 67.8964C21.7432 68.5108 22.0431 69.2091 22.6588 69.4552C24.9329 70.3637 27.3124 71.0392 29.7292 71.4641C29.7988 71.476 29.8684 71.4821 29.938 71.4821C30.5103 71.4821 31.0169 71.0717 31.1199 70.4909C31.234 69.838 30.7983 69.2163 30.1455 69.1011Z" fill="white"/>
<path d="M45.2369 69.5907C45.0833 68.9451 44.4341 68.5491 43.7921 68.7003C41.5744 69.2271 39.2861 69.5283 36.9894 69.5943C36.327 69.6123 35.805 70.1655 35.8241 70.8278C35.8434 71.4782 36.3761 71.993 37.023 71.993C37.0338 71.993 37.0458 71.993 37.059 71.9919C39.5189 71.9212 41.9706 71.5996 44.3466 71.0355C44.9909 70.882 45.3893 70.2351 45.2369 69.5907Z" fill="white"/>
<path d="M26.584 2.47393C26.3836 1.84267 25.708 1.49476 25.0767 1.69388C22.7415 2.43667 20.4735 3.42554 18.3363 4.63154C17.759 4.95793 17.5563 5.68988 17.8815 6.26715C18.1023 6.6571 18.5091 6.87676 18.9279 6.87676C19.1272 6.87676 19.33 6.82642 19.5159 6.72193C21.5091 5.59637 23.6259 4.67359 25.8039 3.98115C26.4352 3.78076 26.7844 3.1052 26.584 2.47393Z" fill="white"/>
<path d="M17.4722 64.0406C15.5666 62.7793 13.7822 61.3154 12.167 59.6907C11.7002 59.2214 10.9393 59.2179 10.4702 59.6859C10.0009 60.1539 9.99852 60.9135 10.4654 61.3839C12.1958 63.1239 14.1074 64.6923 16.1473 66.0435C16.3514 66.178 16.5817 66.2428 16.8086 66.2428C17.1974 66.2428 17.5789 66.0544 17.8094 65.7041C18.1754 65.1518 18.0243 64.4067 17.4722 64.0406Z" fill="white"/>
<path d="M55.0279 65.1734C54.6835 64.607 53.9455 64.4246 53.379 64.769C52.3927 65.3667 51.363 65.9186 50.319 66.4118C49.7203 66.695 49.4622 67.409 49.7454 68.009C49.9506 68.4434 50.3815 68.6978 50.8315 68.6978C51.003 68.6978 51.1771 68.6605 51.3439 68.5826C52.4636 68.0546 53.5663 67.463 54.6236 66.8223C55.1899 66.4777 55.371 65.7397 55.0279 65.1734Z" fill="white"/>
<path d="M71.7478 53.2705C71.3398 52.7461 70.5849 52.6524 70.0642 53.0593L59.2641 61.4593C58.9724 61.6872 58.8008 62.0366 58.8008 62.4073V66.0073C58.8008 66.6696 59.3384 67.2073 60.0008 67.2073C60.6632 67.2073 61.2008 66.6696 61.2008 66.0073V62.9941L71.5365 54.9541C72.0597 54.5474 72.1545 53.7937 71.7478 53.2705Z" fill="white"/>
<path d="M60.3811 61.2684L56.7811 60.0685C56.1499 59.8561 55.4719 60.1993 55.2631 60.8269C55.0531 61.4556 55.3927 62.1348 56.0215 62.3449L59.6215 63.5449C59.7475 63.5869 59.8759 63.6073 60.0007 63.6073C60.5035 63.6073 60.9715 63.2894 61.1395 62.7865C61.3495 62.1576 61.0099 61.4784 60.3811 61.2684Z" fill="white"/>
<path d="M69.5143 63.1597L67.1143 57.1597C67.0171 56.9161 66.8419 56.7109 66.6174 56.5765L60.6174 52.9765C60.0485 52.6358 59.3118 52.8193 58.9709 53.3881C58.6301 53.9569 58.8137 54.6937 59.3825 55.0345L65.0358 58.427L67.2858 64.0526C67.4742 64.5218 67.9242 64.8073 68.4005 64.8073C68.5493 64.8073 68.7005 64.7797 68.8458 64.7197C69.4616 64.4737 69.7603 63.7752 69.5143 63.1597Z" fill="white"/>
</g>
<defs>
<clipPath id="clip0_1_356">
<rect width="72" height="72" fill="white"/>
</clipPath>
</defs>
</svg>
